<mxfile host="app.diagrams.net" modified="2021-04-29T01:58:28.952Z" agent="5.0 (Macintosh; Intel Mac OS X 10_15_7) AppleWebKit/537.36 (KHTML, like Gecko) Chrome/90.0.4430.85 Safari/537.36" etag="iGF29dAN7CbtOt_Qn3JK" version="14.6.6" type="github">
  <diagram id="kgpKYQtTHZ0yAKxKKP6v" name="Page-1">
    <mxGraphModel dx="2516" dy="971" grid="1" gridSize="10" guides="1" tooltips="1" connect="1" arrows="1" fold="1" page="1" pageScale="1" pageWidth="850" pageHeight="1100" math="0" shadow="0">
      <root>
        <mxCell id="0" />
        <mxCell id="1" parent="0" />
        <mxCell id="08Y0YOnCNGVy-pqQsqJH-21" style="edgeStyle=orthogonalEdgeStyle;rounded=0;orthogonalLoop=1;jettySize=auto;html=1;entryX=0;entryY=0.5;entryDx=0;entryDy=0;" edge="1" parent="1" source="08Y0YOnCNGVy-pqQsqJH-20" target="08Y0YOnCNGVy-pqQsqJH-18">
          <mxGeometry relative="1" as="geometry">
            <Array as="points">
              <mxPoint x="-260" y="576" />
            </Array>
          </mxGeometry>
        </mxCell>
        <mxCell id="08Y0YOnCNGVy-pqQsqJH-20" value="" style="rounded=0;whiteSpace=wrap;html=1;fillColor=none;" vertex="1" parent="1">
          <mxGeometry x="-440" y="10" width="360" height="330" as="geometry" />
        </mxCell>
        <mxCell id="FobV05HcqF6CDb4__IpL-115" value="" style="rounded=0;whiteSpace=wrap;html=1;fontSize=14;fillColor=#333333;" parent="1" vertex="1">
          <mxGeometry x="11" y="1120" width="630" height="200" as="geometry" />
        </mxCell>
        <mxCell id="FobV05HcqF6CDb4__IpL-54" style="edgeStyle=orthogonalEdgeStyle;rounded=0;orthogonalLoop=1;jettySize=auto;html=1;fontSize=14;entryX=0;entryY=0.5;entryDx=0;entryDy=0;" parent="1" source="3nuBFxr9cyL0pnOWT2aG-6" target="FobV05HcqF6CDb4__IpL-77" edge="1">
          <mxGeometry relative="1" as="geometry">
            <mxPoint x="100" y="870" as="targetPoint" />
            <Array as="points">
              <mxPoint x="630" y="160" />
              <mxPoint x="20" y="160" />
              <mxPoint x="20" y="870" />
            </Array>
          </mxGeometry>
        </mxCell>
        <mxCell id="3nuBFxr9cyL0pnOWT2aG-6" value="User 1/Room 1" style="rounded=1;whiteSpace=wrap;html=1;arcSize=50;" parent="1" vertex="1">
          <mxGeometry x="580" y="227" width="90" height="40" as="geometry" />
        </mxCell>
        <mxCell id="FobV05HcqF6CDb4__IpL-49" style="edgeStyle=orthogonalEdgeStyle;rounded=0;orthogonalLoop=1;jettySize=auto;html=1;fontSize=14;entryX=1;entryY=0.5;entryDx=0;entryDy=0;" parent="1" source="FobV05HcqF6CDb4__IpL-20" target="FobV05HcqF6CDb4__IpL-33" edge="1">
          <mxGeometry relative="1" as="geometry">
            <mxPoint x="808" y="357" as="targetPoint" />
            <Array as="points">
              <mxPoint x="820" y="488" />
              <mxPoint x="820" y="324" />
            </Array>
          </mxGeometry>
        </mxCell>
        <mxCell id="08Y0YOnCNGVy-pqQsqJH-13" style="edgeStyle=orthogonalEdgeStyle;rounded=0;orthogonalLoop=1;jettySize=auto;html=1;entryX=1;entryY=0.5;entryDx=0;entryDy=0;" edge="1" parent="1" source="FobV05HcqF6CDb4__IpL-20" target="3nuBFxr9cyL0pnOWT2aG-6">
          <mxGeometry relative="1" as="geometry">
            <Array as="points">
              <mxPoint x="820" y="488" />
              <mxPoint x="820" y="247" />
            </Array>
          </mxGeometry>
        </mxCell>
        <mxCell id="FobV05HcqF6CDb4__IpL-20" value="Triggers&lt;br&gt;Subscriptions" style="rhombus;whiteSpace=wrap;html=1;" parent="1" vertex="1">
          <mxGeometry x="565" y="450" width="120" height="77" as="geometry" />
        </mxCell>
        <mxCell id="FobV05HcqF6CDb4__IpL-23" value="&lt;b style=&quot;font-size: 16px;&quot;&gt;Server&lt;/b&gt;" style="rounded=0;whiteSpace=wrap;html=1;fontSize=16;" parent="1" vertex="1">
          <mxGeometry x="310" y="210" width="120" height="447" as="geometry" />
        </mxCell>
        <mxCell id="FobV05HcqF6CDb4__IpL-33" value="User 2/Room 1" style="rounded=1;whiteSpace=wrap;html=1;arcSize=50;" parent="1" vertex="1">
          <mxGeometry x="580" y="304" width="90" height="40" as="geometry" />
        </mxCell>
        <mxCell id="FobV05HcqF6CDb4__IpL-34" style="edgeStyle=orthogonalEdgeStyle;rounded=0;orthogonalLoop=1;jettySize=auto;html=1;entryX=-0.017;entryY=0.101;entryDx=0;entryDy=0;entryPerimeter=0;fontSize=16;" parent="1" edge="1">
          <mxGeometry relative="1" as="geometry">
            <mxPoint x="307.96000000000004" y="323.865" as="targetPoint" />
            <Array as="points">
              <mxPoint x="248" y="324" />
            </Array>
            <mxPoint x="80" y="323.9" as="sourcePoint" />
          </mxGeometry>
        </mxCell>
        <mxCell id="FobV05HcqF6CDb4__IpL-35" value="subscribes to Room 1" style="edgeLabel;html=1;align=center;verticalAlign=middle;resizable=0;points=[];fontSize=14;" parent="FobV05HcqF6CDb4__IpL-34" vertex="1" connectable="0">
          <mxGeometry x="-0.205" y="-1" relative="1" as="geometry">
            <mxPoint y="-16" as="offset" />
          </mxGeometry>
        </mxCell>
        <mxCell id="FobV05HcqF6CDb4__IpL-37" value="" style="endArrow=classic;html=1;fontSize=14;entryX=0;entryY=0.5;entryDx=0;entryDy=0;exitX=1.017;exitY=0.101;exitDx=0;exitDy=0;exitPerimeter=0;" parent="1" target="FobV05HcqF6CDb4__IpL-33" edge="1">
          <mxGeometry width="50" height="50" relative="1" as="geometry">
            <mxPoint x="432.03999999999996" y="323.865" as="sourcePoint" />
            <mxPoint x="480" y="374" as="targetPoint" />
          </mxGeometry>
        </mxCell>
        <mxCell id="FobV05HcqF6CDb4__IpL-38" value="User 3/Room 2" style="rounded=1;whiteSpace=wrap;html=1;arcSize=50;" parent="1" vertex="1">
          <mxGeometry x="580" y="384" width="90" height="40" as="geometry" />
        </mxCell>
        <mxCell id="FobV05HcqF6CDb4__IpL-39" style="edgeStyle=orthogonalEdgeStyle;rounded=0;orthogonalLoop=1;jettySize=auto;html=1;entryX=-0.017;entryY=0.101;entryDx=0;entryDy=0;entryPerimeter=0;fontSize=16;" parent="1" edge="1">
          <mxGeometry relative="1" as="geometry">
            <mxPoint x="307.96000000000004" y="403.865" as="targetPoint" />
            <Array as="points">
              <mxPoint x="248" y="404" />
            </Array>
            <mxPoint x="80" y="403.9000000000001" as="sourcePoint" />
          </mxGeometry>
        </mxCell>
        <mxCell id="FobV05HcqF6CDb4__IpL-40" value="subscribes to Room 2" style="edgeLabel;html=1;align=center;verticalAlign=middle;resizable=0;points=[];fontSize=14;" parent="FobV05HcqF6CDb4__IpL-39" vertex="1" connectable="0">
          <mxGeometry x="-0.205" y="-1" relative="1" as="geometry">
            <mxPoint y="-16" as="offset" />
          </mxGeometry>
        </mxCell>
        <mxCell id="FobV05HcqF6CDb4__IpL-42" value="" style="endArrow=classic;html=1;fontSize=14;entryX=0;entryY=0.5;entryDx=0;entryDy=0;exitX=1.017;exitY=0.101;exitDx=0;exitDy=0;exitPerimeter=0;" parent="1" target="FobV05HcqF6CDb4__IpL-38" edge="1">
          <mxGeometry width="50" height="50" relative="1" as="geometry">
            <mxPoint x="432.03999999999996" y="403.865" as="sourcePoint" />
            <mxPoint x="480" y="454" as="targetPoint" />
          </mxGeometry>
        </mxCell>
        <mxCell id="FobV05HcqF6CDb4__IpL-43" style="edgeStyle=orthogonalEdgeStyle;rounded=0;orthogonalLoop=1;jettySize=auto;html=1;entryX=-0.017;entryY=0.101;entryDx=0;entryDy=0;entryPerimeter=0;fontSize=16;" parent="1" edge="1">
          <mxGeometry relative="1" as="geometry">
            <mxPoint x="307.96000000000004" y="243.865" as="targetPoint" />
            <Array as="points">
              <mxPoint x="248" y="244" />
            </Array>
            <mxPoint x="80" y="243.89999999999998" as="sourcePoint" />
          </mxGeometry>
        </mxCell>
        <mxCell id="FobV05HcqF6CDb4__IpL-44" value="subscribes to Room 1" style="edgeLabel;html=1;align=center;verticalAlign=middle;resizable=0;points=[];fontSize=14;" parent="FobV05HcqF6CDb4__IpL-43" vertex="1" connectable="0">
          <mxGeometry x="-0.205" y="-1" relative="1" as="geometry">
            <mxPoint y="-16" as="offset" />
          </mxGeometry>
        </mxCell>
        <mxCell id="FobV05HcqF6CDb4__IpL-45" value="" style="endArrow=classic;html=1;fontSize=14;entryX=0;entryY=0.5;entryDx=0;entryDy=0;exitX=1.017;exitY=0.101;exitDx=0;exitDy=0;exitPerimeter=0;" parent="1" edge="1">
          <mxGeometry width="50" height="50" relative="1" as="geometry">
            <mxPoint x="432.03999999999996" y="243.865" as="sourcePoint" />
            <mxPoint x="580" y="244" as="targetPoint" />
          </mxGeometry>
        </mxCell>
        <mxCell id="FobV05HcqF6CDb4__IpL-47" value="" style="endArrow=classic;html=1;fontSize=14;entryX=-0.027;entryY=0.941;entryDx=0;entryDy=0;entryPerimeter=0;" parent="1" source="FobV05HcqF6CDb4__IpL-61" edge="1">
          <mxGeometry width="50" height="50" relative="1" as="geometry">
            <mxPoint x="160" y="488" as="sourcePoint" />
            <mxPoint x="306.7600000000002" y="486.62699999999995" as="targetPoint" />
          </mxGeometry>
        </mxCell>
        <mxCell id="FobV05HcqF6CDb4__IpL-62" value="sends message in Room 1" style="edgeLabel;html=1;align=center;verticalAlign=middle;resizable=0;points=[];fontSize=14;" parent="FobV05HcqF6CDb4__IpL-47" vertex="1" connectable="0">
          <mxGeometry x="-0.661" relative="1" as="geometry">
            <mxPoint x="63" y="-11" as="offset" />
          </mxGeometry>
        </mxCell>
        <mxCell id="FobV05HcqF6CDb4__IpL-48" value="" style="endArrow=classic;html=1;fontSize=14;" parent="1" edge="1">
          <mxGeometry width="50" height="50" relative="1" as="geometry">
            <mxPoint x="430" y="487" as="sourcePoint" />
            <mxPoint x="560" y="488" as="targetPoint" />
          </mxGeometry>
        </mxCell>
        <mxCell id="FobV05HcqF6CDb4__IpL-101" style="edgeStyle=orthogonalEdgeStyle;rounded=0;orthogonalLoop=1;jettySize=auto;html=1;entryX=0;entryY=0.5;entryDx=0;entryDy=0;fontSize=14;" parent="1" source="FobV05HcqF6CDb4__IpL-52" target="FobV05HcqF6CDb4__IpL-97" edge="1">
          <mxGeometry relative="1" as="geometry" />
        </mxCell>
        <mxCell id="FobV05HcqF6CDb4__IpL-52" value="User 1/Room 1" style="rounded=1;whiteSpace=wrap;html=1;arcSize=50;" parent="1" vertex="1">
          <mxGeometry x="270" y="750" width="90" height="40" as="geometry" />
        </mxCell>
        <mxCell id="FobV05HcqF6CDb4__IpL-53" value="User 2/Room 1" style="rounded=1;whiteSpace=wrap;html=1;arcSize=50;" parent="1" vertex="1">
          <mxGeometry x="270" y="930" width="90" height="40" as="geometry" />
        </mxCell>
        <mxCell id="FobV05HcqF6CDb4__IpL-58" value="User 1" style="rounded=0;whiteSpace=wrap;html=1;fontSize=14;" parent="1" vertex="1">
          <mxGeometry x="40" y="220" width="50" height="40" as="geometry" />
        </mxCell>
        <mxCell id="FobV05HcqF6CDb4__IpL-59" value="User 2" style="rounded=0;whiteSpace=wrap;html=1;fontSize=14;" parent="1" vertex="1">
          <mxGeometry x="40" y="300" width="50" height="40" as="geometry" />
        </mxCell>
        <mxCell id="FobV05HcqF6CDb4__IpL-60" value="User 3" style="rounded=0;whiteSpace=wrap;html=1;fontSize=14;" parent="1" vertex="1">
          <mxGeometry x="40" y="380" width="50" height="40" as="geometry" />
        </mxCell>
        <mxCell id="FobV05HcqF6CDb4__IpL-61" value="User 4" style="rounded=0;whiteSpace=wrap;html=1;fontSize=14;" parent="1" vertex="1">
          <mxGeometry x="40" y="466" width="50" height="40" as="geometry" />
        </mxCell>
        <mxCell id="FobV05HcqF6CDb4__IpL-79" style="edgeStyle=orthogonalEdgeStyle;rounded=0;orthogonalLoop=1;jettySize=auto;html=1;entryX=0;entryY=0.5;entryDx=0;entryDy=0;fontSize=14;" parent="1" source="FobV05HcqF6CDb4__IpL-77" target="FobV05HcqF6CDb4__IpL-53" edge="1">
          <mxGeometry relative="1" as="geometry" />
        </mxCell>
        <mxCell id="FobV05HcqF6CDb4__IpL-80" style="edgeStyle=orthogonalEdgeStyle;rounded=0;orthogonalLoop=1;jettySize=auto;html=1;entryX=0;entryY=0.5;entryDx=0;entryDy=0;fontSize=14;" parent="1" source="FobV05HcqF6CDb4__IpL-77" target="FobV05HcqF6CDb4__IpL-52" edge="1">
          <mxGeometry relative="1" as="geometry" />
        </mxCell>
        <mxCell id="FobV05HcqF6CDb4__IpL-77" value="Run Concurrently" style="rhombus;whiteSpace=wrap;html=1;fontSize=14;" parent="1" vertex="1">
          <mxGeometry x="60" y="830" width="150" height="80" as="geometry" />
        </mxCell>
        <mxCell id="FobV05HcqF6CDb4__IpL-81" value="Create bookmark" style="shape=parallelogram;perimeter=parallelogramPerimeter;whiteSpace=wrap;html=1;fixedSize=1;fontSize=14;" parent="1" vertex="1">
          <mxGeometry x="630" y="720" width="180" height="20" as="geometry" />
        </mxCell>
        <mxCell id="FobV05HcqF6CDb4__IpL-82" value="Calculate notification" style="shape=parallelogram;perimeter=parallelogramPerimeter;whiteSpace=wrap;html=1;fixedSize=1;fontSize=14;" parent="1" vertex="1">
          <mxGeometry x="630" y="760" width="180" height="20" as="geometry" />
        </mxCell>
        <mxCell id="FobV05HcqF6CDb4__IpL-83" value="Update badge" style="shape=parallelogram;perimeter=parallelogramPerimeter;whiteSpace=wrap;html=1;fixedSize=1;fontSize=14;" parent="1" vertex="1">
          <mxGeometry x="630" y="800" width="180" height="20" as="geometry" />
        </mxCell>
        <mxCell id="FobV05HcqF6CDb4__IpL-97" value="Run Concurrently" style="rhombus;whiteSpace=wrap;html=1;fontSize=14;" parent="1" vertex="1">
          <mxGeometry x="405" y="730" width="155" height="80" as="geometry" />
        </mxCell>
        <mxCell id="FobV05HcqF6CDb4__IpL-98" value="" style="endArrow=classic;html=1;fontSize=14;entryX=0;entryY=0.75;entryDx=0;entryDy=0;exitX=1;exitY=0.5;exitDx=0;exitDy=0;" parent="1" source="FobV05HcqF6CDb4__IpL-97" target="FobV05HcqF6CDb4__IpL-81" edge="1">
          <mxGeometry width="50" height="50" relative="1" as="geometry">
            <mxPoint x="420" y="870" as="sourcePoint" />
            <mxPoint x="470" y="820" as="targetPoint" />
          </mxGeometry>
        </mxCell>
        <mxCell id="FobV05HcqF6CDb4__IpL-99" value="" style="endArrow=classic;html=1;fontSize=14;entryX=0;entryY=0.75;entryDx=0;entryDy=0;exitX=1;exitY=0.5;exitDx=0;exitDy=0;" parent="1" source="FobV05HcqF6CDb4__IpL-97" target="FobV05HcqF6CDb4__IpL-82" edge="1">
          <mxGeometry width="50" height="50" relative="1" as="geometry">
            <mxPoint x="550" y="830" as="sourcePoint" />
            <mxPoint x="600" y="780" as="targetPoint" />
          </mxGeometry>
        </mxCell>
        <mxCell id="FobV05HcqF6CDb4__IpL-100" value="" style="endArrow=classic;html=1;fontSize=14;entryX=0;entryY=0.5;entryDx=0;entryDy=0;exitX=1;exitY=0.5;exitDx=0;exitDy=0;" parent="1" source="FobV05HcqF6CDb4__IpL-97" target="FobV05HcqF6CDb4__IpL-83" edge="1">
          <mxGeometry width="50" height="50" relative="1" as="geometry">
            <mxPoint x="420" y="870" as="sourcePoint" />
            <mxPoint x="470" y="820" as="targetPoint" />
          </mxGeometry>
        </mxCell>
        <mxCell id="FobV05HcqF6CDb4__IpL-102" style="edgeStyle=orthogonalEdgeStyle;rounded=0;orthogonalLoop=1;jettySize=auto;html=1;entryX=0;entryY=0.5;entryDx=0;entryDy=0;fontSize=14;exitX=1;exitY=0.5;exitDx=0;exitDy=0;" parent="1" source="FobV05HcqF6CDb4__IpL-53" target="FobV05HcqF6CDb4__IpL-106" edge="1">
          <mxGeometry relative="1" as="geometry">
            <mxPoint x="380" y="950" as="sourcePoint" />
          </mxGeometry>
        </mxCell>
        <mxCell id="FobV05HcqF6CDb4__IpL-103" value="Create bookmark" style="shape=parallelogram;perimeter=parallelogramPerimeter;whiteSpace=wrap;html=1;fixedSize=1;fontSize=14;" parent="1" vertex="1">
          <mxGeometry x="630" y="900" width="180" height="20" as="geometry" />
        </mxCell>
        <mxCell id="FobV05HcqF6CDb4__IpL-104" value="Calculate notification" style="shape=parallelogram;perimeter=parallelogramPerimeter;whiteSpace=wrap;html=1;fixedSize=1;fontSize=14;" parent="1" vertex="1">
          <mxGeometry x="630" y="940" width="180" height="20" as="geometry" />
        </mxCell>
        <mxCell id="FobV05HcqF6CDb4__IpL-105" value="Update badge" style="shape=parallelogram;perimeter=parallelogramPerimeter;whiteSpace=wrap;html=1;fixedSize=1;fontSize=14;" parent="1" vertex="1">
          <mxGeometry x="630" y="980" width="180" height="20" as="geometry" />
        </mxCell>
        <mxCell id="FobV05HcqF6CDb4__IpL-106" value="Run Concurrently" style="rhombus;whiteSpace=wrap;html=1;fontSize=14;" parent="1" vertex="1">
          <mxGeometry x="405" y="910" width="155" height="80" as="geometry" />
        </mxCell>
        <mxCell id="FobV05HcqF6CDb4__IpL-107" value="" style="endArrow=classic;html=1;fontSize=14;entryX=0;entryY=0.75;entryDx=0;entryDy=0;exitX=1;exitY=0.5;exitDx=0;exitDy=0;" parent="1" source="FobV05HcqF6CDb4__IpL-106" target="FobV05HcqF6CDb4__IpL-103" edge="1">
          <mxGeometry width="50" height="50" relative="1" as="geometry">
            <mxPoint x="420" y="1050" as="sourcePoint" />
            <mxPoint x="470" y="1000" as="targetPoint" />
          </mxGeometry>
        </mxCell>
        <mxCell id="FobV05HcqF6CDb4__IpL-108" value="" style="endArrow=classic;html=1;fontSize=14;entryX=0;entryY=0.75;entryDx=0;entryDy=0;exitX=1;exitY=0.5;exitDx=0;exitDy=0;" parent="1" source="FobV05HcqF6CDb4__IpL-106" target="FobV05HcqF6CDb4__IpL-104" edge="1">
          <mxGeometry width="50" height="50" relative="1" as="geometry">
            <mxPoint x="550" y="1010" as="sourcePoint" />
            <mxPoint x="600" y="960" as="targetPoint" />
          </mxGeometry>
        </mxCell>
        <mxCell id="FobV05HcqF6CDb4__IpL-109" value="" style="endArrow=classic;html=1;fontSize=14;entryX=0;entryY=0.5;entryDx=0;entryDy=0;exitX=1;exitY=0.5;exitDx=0;exitDy=0;" parent="1" source="FobV05HcqF6CDb4__IpL-106" target="FobV05HcqF6CDb4__IpL-105" edge="1">
          <mxGeometry width="50" height="50" relative="1" as="geometry">
            <mxPoint x="420" y="1050" as="sourcePoint" />
            <mxPoint x="470" y="1000" as="targetPoint" />
          </mxGeometry>
        </mxCell>
        <mxCell id="FobV05HcqF6CDb4__IpL-110" value="&lt;p style=&quot;line-height: 90%&quot;&gt;&lt;/p&gt;&lt;h1&gt;Message Subscription&amp;nbsp;&lt;/h1&gt;&lt;p style=&quot;font-size: 13px&quot;&gt;&lt;font style=&quot;font-size: 13px&quot;&gt;Clients subscribe to channels (rooms, groups, 1-1s).&amp;nbsp;&lt;span&gt;When a message is sent, subscribers&lt;/span&gt;&lt;span&gt;&amp;nbsp;receive updates.&lt;/span&gt;&lt;/font&gt;&lt;/p&gt;&lt;p style=&quot;font-size: 13px&quot;&gt;&lt;font style=&quot;font-size: 13px&quot;&gt;The server handles each client subscription concurrently. It also concurrently calculates information like badge, bookmark, and notification.&lt;/font&gt;&lt;/p&gt;&lt;p&gt;&lt;/p&gt;" style="text;html=1;strokeColor=none;fillColor=none;spacing=5;spacingTop=-20;whiteSpace=wrap;overflow=hidden;rounded=0;fontSize=14;" parent="1" vertex="1">
          <mxGeometry x="20" y="10" width="730" height="130" as="geometry" />
        </mxCell>
        <mxCell id="FobV05HcqF6CDb4__IpL-112" value="&lt;p style=&quot;line-height: 0%&quot;&gt;&lt;/p&gt;&lt;h1 style=&quot;line-height: 100% ; font-size: 13px&quot;&gt;&lt;font style=&quot;font-size: 13px ; font-weight: normal&quot;&gt;A client&#39;s request for subscription looks like this:&lt;/font&gt;&lt;/h1&gt;&lt;div&gt;&lt;font style=&quot;font-size: 13px ; font-weight: normal&quot;&gt;&lt;br&gt;&lt;/font&gt;&lt;/div&gt;&lt;h1 style=&quot;line-height: 100% ; font-size: 13px&quot;&gt;&lt;font style=&quot;font-size: 13px ; font-weight: normal&quot; face=&quot;Courier New&quot; color=&quot;#ffffff&quot;&gt;subscription {&lt;/font&gt;&lt;/h1&gt;&lt;h1 style=&quot;line-height: 100% ; font-size: 13px&quot;&gt;&lt;font style=&quot;font-size: 13px ; font-weight: normal&quot; face=&quot;Courier New&quot; color=&quot;#ffffff&quot;&gt;&amp;nbsp; newMessage(channelIds: [&quot;channel #1&quot;, &quot;channel #2&quot;]) {&lt;/font&gt;&lt;/h1&gt;&lt;h1 style=&quot;line-height: 100% ; font-size: 13px&quot;&gt;&lt;font style=&quot;font-size: 13px ; font-weight: normal&quot; face=&quot;Courier New&quot; color=&quot;#ffffff&quot;&gt;&amp;nbsp; &amp;nbsp; message { id content }&lt;/font&gt;&lt;/h1&gt;&lt;h1 style=&quot;line-height: 100% ; font-size: 13px&quot;&gt;&lt;font style=&quot;font-size: 13px ; font-weight: normal&quot; face=&quot;Courier New&quot; color=&quot;#ffffff&quot;&gt;&amp;nbsp; &amp;nbsp; badges { channelId value mentionsMe mentionsAll }&lt;/font&gt;&lt;/h1&gt;&lt;h1 style=&quot;line-height: 100% ; font-size: 13px&quot;&gt;&lt;font style=&quot;font-size: 13px ; font-weight: normal&quot; face=&quot;Courier New&quot; color=&quot;#ffffff&quot;&gt;&amp;nbsp; &amp;nbsp; bookmark { channelId }&lt;/font&gt;&lt;/h1&gt;&lt;h1 style=&quot;line-height: 100% ; font-size: 13px&quot;&gt;&lt;font style=&quot;font-size: 13px ; font-weight: normal&quot; face=&quot;Courier New&quot; color=&quot;#ffffff&quot;&gt;&amp;nbsp; &amp;nbsp; notification { title message }&lt;/font&gt;&lt;/h1&gt;&lt;h1 style=&quot;line-height: 100% ; font-size: 13px&quot;&gt;&lt;font style=&quot;font-size: 13px ; font-weight: normal&quot; face=&quot;Courier New&quot; color=&quot;#ffffff&quot;&gt;&amp;nbsp; }&lt;/font&gt;&lt;/h1&gt;&lt;h1 style=&quot;line-height: 100% ; font-size: 13px&quot;&gt;&lt;font style=&quot;font-size: 13px ; font-weight: normal&quot; face=&quot;Courier New&quot; color=&quot;#ffffff&quot;&gt;}&lt;/font&gt;&lt;/h1&gt;&lt;div style=&quot;font-size: 13px&quot;&gt;&lt;br&gt;&lt;/div&gt;&lt;p&gt;&lt;/p&gt;" style="text;html=1;strokeColor=none;fillColor=none;spacing=5;spacingTop=-20;whiteSpace=wrap;overflow=hidden;rounded=0;fontSize=14;" parent="1" vertex="1">
          <mxGeometry x="20" y="1080" width="740" height="360" as="geometry" />
        </mxCell>
        <mxCell id="08Y0YOnCNGVy-pqQsqJH-1" value="Messages" style="shape=table;startSize=30;container=1;collapsible=1;childLayout=tableLayout;fixedRows=1;rowLines=0;fontStyle=1;align=center;resizeLast=1;" vertex="1" parent="1">
          <mxGeometry x="-424" y="160" width="180" height="160" as="geometry">
            <mxRectangle x="70" y="50" width="90" height="30" as="alternateBounds" />
          </mxGeometry>
        </mxCell>
        <mxCell id="08Y0YOnCNGVy-pqQsqJH-2" value="" style="shape=partialRectangle;collapsible=0;dropTarget=0;pointerEvents=0;fillColor=none;points=[[0,0.5],[1,0.5]];portConstraint=eastwest;top=0;left=0;right=0;bottom=1;" vertex="1" parent="08Y0YOnCNGVy-pqQsqJH-1">
          <mxGeometry y="30" width="180" height="30" as="geometry" />
        </mxCell>
        <mxCell id="08Y0YOnCNGVy-pqQsqJH-3" value="" style="shape=partialRectangle;overflow=hidden;connectable=0;fillColor=none;top=0;left=0;bottom=0;right=0;fontStyle=1;" vertex="1" parent="08Y0YOnCNGVy-pqQsqJH-2">
          <mxGeometry width="30" height="30" as="geometry" />
        </mxCell>
        <mxCell id="08Y0YOnCNGVy-pqQsqJH-4" value="channel_id" style="shape=partialRectangle;overflow=hidden;connectable=0;fillColor=none;top=0;left=0;bottom=0;right=0;align=left;spacingLeft=6;fontStyle=5;" vertex="1" parent="08Y0YOnCNGVy-pqQsqJH-2">
          <mxGeometry x="30" width="150" height="30" as="geometry" />
        </mxCell>
        <mxCell id="08Y0YOnCNGVy-pqQsqJH-5" value="" style="shape=partialRectangle;collapsible=0;dropTarget=0;pointerEvents=0;fillColor=none;points=[[0,0.5],[1,0.5]];portConstraint=eastwest;top=0;left=0;right=0;bottom=0;" vertex="1" parent="08Y0YOnCNGVy-pqQsqJH-1">
          <mxGeometry y="60" width="180" height="30" as="geometry" />
        </mxCell>
        <mxCell id="08Y0YOnCNGVy-pqQsqJH-6" value="" style="shape=partialRectangle;overflow=hidden;connectable=0;fillColor=none;top=0;left=0;bottom=0;right=0;" vertex="1" parent="08Y0YOnCNGVy-pqQsqJH-5">
          <mxGeometry width="30" height="30" as="geometry" />
        </mxCell>
        <mxCell id="08Y0YOnCNGVy-pqQsqJH-7" value="id" style="shape=partialRectangle;overflow=hidden;connectable=0;fillColor=none;top=0;left=0;bottom=0;right=0;align=left;spacingLeft=6;" vertex="1" parent="08Y0YOnCNGVy-pqQsqJH-5">
          <mxGeometry x="30" width="150" height="30" as="geometry" />
        </mxCell>
        <mxCell id="08Y0YOnCNGVy-pqQsqJH-8" value="parent_message_id" style="shape=partialRectangle;overflow=hidden;connectable=0;fillColor=none;top=0;left=0;bottom=0;right=0;align=left;spacingLeft=6;" vertex="1" parent="1">
          <mxGeometry x="-394" y="250" width="130" height="30" as="geometry" />
        </mxCell>
        <mxCell id="08Y0YOnCNGVy-pqQsqJH-9" value="" style="endArrow=none;html=1;" edge="1" parent="1">
          <mxGeometry width="50" height="50" relative="1" as="geometry">
            <mxPoint x="-244" y="265" as="sourcePoint" />
            <mxPoint x="-204" y="265" as="targetPoint" />
          </mxGeometry>
        </mxCell>
        <mxCell id="08Y0YOnCNGVy-pqQsqJH-10" value="" style="endArrow=none;html=1;" edge="1" parent="1">
          <mxGeometry width="50" height="50" relative="1" as="geometry">
            <mxPoint x="-204" y="265" as="sourcePoint" />
            <mxPoint x="-204" y="238" as="targetPoint" />
          </mxGeometry>
        </mxCell>
        <mxCell id="08Y0YOnCNGVy-pqQsqJH-11" value="" style="endArrow=classic;html=1;" edge="1" parent="1">
          <mxGeometry width="50" height="50" relative="1" as="geometry">
            <mxPoint x="-204" y="238" as="sourcePoint" />
            <mxPoint x="-244" y="238" as="targetPoint" />
          </mxGeometry>
        </mxCell>
        <mxCell id="08Y0YOnCNGVy-pqQsqJH-12" value="&lt;h1&gt;&lt;span&gt;Message threads&lt;/span&gt;&lt;/h1&gt;&lt;h1&gt;&lt;span style=&quot;font-size: 12px ; font-weight: normal&quot;&gt;Messages in threads point to another message in the table.&lt;/span&gt;&lt;br&gt;&lt;/h1&gt;&lt;div&gt;Uses the same subscription as new messages.&lt;/div&gt;" style="text;html=1;strokeColor=none;fillColor=none;spacing=5;spacingTop=-20;whiteSpace=wrap;overflow=hidden;rounded=0;" vertex="1" parent="1">
          <mxGeometry x="-425" y="20" width="351" height="110" as="geometry" />
        </mxCell>
        <mxCell id="08Y0YOnCNGVy-pqQsqJH-19" style="edgeStyle=orthogonalEdgeStyle;rounded=0;orthogonalLoop=1;jettySize=auto;html=1;entryX=1;entryY=0.5;entryDx=0;entryDy=0;" edge="1" parent="1" source="08Y0YOnCNGVy-pqQsqJH-14" target="FobV05HcqF6CDb4__IpL-38">
          <mxGeometry relative="1" as="geometry">
            <Array as="points">
              <mxPoint x="750" y="579" />
              <mxPoint x="750" y="404" />
            </Array>
          </mxGeometry>
        </mxCell>
        <mxCell id="08Y0YOnCNGVy-pqQsqJH-14" value="Triggers&lt;br&gt;Subscriptions" style="rhombus;whiteSpace=wrap;html=1;" vertex="1" parent="1">
          <mxGeometry x="563" y="540" width="120" height="77" as="geometry" />
        </mxCell>
        <mxCell id="08Y0YOnCNGVy-pqQsqJH-15" value="" style="endArrow=classic;html=1;fontSize=14;entryX=-0.027;entryY=0.941;entryDx=0;entryDy=0;entryPerimeter=0;" edge="1" parent="1" source="08Y0YOnCNGVy-pqQsqJH-18">
          <mxGeometry width="50" height="50" relative="1" as="geometry">
            <mxPoint x="160" y="578" as="sourcePoint" />
            <mxPoint x="306.7600000000002" y="576.627" as="targetPoint" />
          </mxGeometry>
        </mxCell>
        <mxCell id="08Y0YOnCNGVy-pqQsqJH-16" value="sends a thread message&amp;nbsp;&lt;br&gt;in Room 2" style="edgeLabel;html=1;align=center;verticalAlign=middle;resizable=0;points=[];fontSize=14;" vertex="1" connectable="0" parent="08Y0YOnCNGVy-pqQsqJH-15">
          <mxGeometry x="-0.661" relative="1" as="geometry">
            <mxPoint x="63" y="-20" as="offset" />
          </mxGeometry>
        </mxCell>
        <mxCell id="08Y0YOnCNGVy-pqQsqJH-17" value="" style="endArrow=classic;html=1;fontSize=14;" edge="1" parent="1">
          <mxGeometry width="50" height="50" relative="1" as="geometry">
            <mxPoint x="430" y="577" as="sourcePoint" />
            <mxPoint x="560" y="578" as="targetPoint" />
          </mxGeometry>
        </mxCell>
        <mxCell id="08Y0YOnCNGVy-pqQsqJH-18" value="User 5" style="rounded=0;whiteSpace=wrap;html=1;fontSize=14;" vertex="1" parent="1">
          <mxGeometry x="40" y="556" width="50" height="40" as="geometry" />
        </mxCell>
      </root>
    </mxGraphModel>
  </diagram>
</mxfile>
